<svg width="18" height="19" viewBox="0 0 18 19" fill="none" xmlns="http://www.w3.org/2000/svg">
<path fill-rule="evenodd" clip-rule="evenodd" d="M1.01666 5.45418C2.38229 2.15951 5.582 0.00965651 9.13415 0.000123962C12.9625 -0.0201314 16.3666 2.44366 17.56 6.09854C18.7534 9.75341 17.4634 13.7644 14.3671 16.0266C11.2708 18.2888 7.07539 18.2855 3.98267 16.0183L1.225 18.789C0.94462 19.0703 0.490404 19.0703 0.210023 18.789C-0.0700078 18.5073 -0.0700078 18.0509 0.210023 17.7692L2.88152 15.0851C0.386115 12.5451 -0.348964 8.74886 1.01666 5.45418ZM2.29702 11.7073C3.44363 14.4834 6.14259 16.2915 9.13415 16.2877V16.2492C13.1943 16.244 16.4904 12.9495 16.5167 8.87024C16.5205 5.86453 14.7209 3.15281 11.9578 2.00078C9.19473 0.848746 6.01294 1.48356 3.89759 3.60891C1.78223 5.73427 1.15041 8.9311 2.29702 11.7073Z" fill="black"/>
</svg>
